<?xml version="1.0" standalone="no"?>
<!DOCTYPE svg PUBLIC "-//W3C//DTD SVG 20010904//EN"
 "http://www.w3.org/TR/2001/REC-SVG-20010904/DTD/svg10.dtd">
<svg version="1.0" xmlns="http://www.w3.org/2000/svg"
 width="1920.000000pt" height="320.000000pt" viewBox="0 0 1920.000000 320.000000"
 preserveAspectRatio="xMidYMid meet">
<metadata>
Created by potrace 1.15, written by Peter Selinger 2001-2017
</metadata>
<g transform="translate(0.000000,320.000000) scale(0.100000,-0.100000)"
fill="#000000" stroke="none">
<path d="M0 1600 l0 -1600 3363 0 3364 0 -1 44 c-1 24 -5 42 -9 39 -5 -3 -7 3
-5 12 2 10 -3 20 -10 22 -6 3 -12 -2 -12 -10 0 -10 -7 -13 -20 -10 -13 3 -22
-1 -26 -12 -5 -13 -9 -14 -15 -3 -12 19 -11 30 2 22 9 -5 10 1 5 20 -5 22 -2
31 18 47 19 15 25 29 24 54 -1 29 -5 35 -24 35 -13 0 -25 4 -28 9 -8 12 16 38
44 46 22 7 23 6 12 -8 -11 -13 -9 -16 15 -19 21 -2 36 5 60 32 30 31 47 80 23
65 -6 -3 -10 1 -10 9 0 20 -14 20 -34 0 -15 -14 -16 -14 -16 0 0 9 4 16 9 16
5 0 11 10 15 23 5 18 8 19 16 7 7 -11 12 -12 20 -4 9 9 9 14 1 18 -6 4 -11 12
-11 17 0 6 5 7 10 4 6 -4 19 4 30 17 17 20 21 21 30 8 8 -13 10 -13 10 3 0 9
5 17 10 17 6 0 10 -8 10 -18 0 -10 6 -24 12 -30 10 -10 10 -17 0 -32 -6 -11
-12 -27 -12 -36 0 -11 -6 -15 -19 -11 -14 3 -18 1 -14 -9 3 -8 10 -14 15 -14
6 0 5 -6 -2 -15 -7 -8 -16 -12 -21 -9 -5 3 -9 0 -9 -6 0 -7 -8 -9 -20 -5 -20
6 -24 -1 -21 -35 2 -13 1 -13 -9 0 -9 13 -11 13 -20 0 -6 -10 -6 -16 0 -18 6
-2 1 -15 -9 -28 -23 -29 -21 -80 4 -140 l16 -39 19 25 c18 23 21 24 72 13 29
-6 79 -9 111 -8 50 3 57 1 57 -15 0 -11 12 -25 28 -32 15 -7 31 -23 37 -36
l10 -22 6052 0 6053 0 0 1600 0 1600 -5601 0 c-5596 0 -5600 0 -5594 -20 8
-26 -11 -26 -27 0 -13 20 -24 20 -1021 20 l-1009 0 7 -32 c9 -45 26 -78 41
-78 15 0 74 54 74 69 0 11 61 4 70 -9 3 -3 19 -6 35 -5 41 1 81 -28 95 -70 13
-38 7 -55 -18 -55 -13 0 -13 -2 4 -14 18 -14 18 -15 -9 -25 -32 -12 -57 -34
-57 -50 0 -6 -11 -11 -25 -11 -40 0 -52 -44 -27 -96 17 -34 25 -41 51 -41 30
0 61 -17 61 -34 0 -5 -7 -9 -15 -9 -8 0 -15 -7 -15 -16 0 -10 6 -14 14 -11 16
7 26 -12 32 -65 4 -28 1 -38 -9 -38 -8 0 -17 -9 -20 -20 -3 -12 -14 -20 -26
-20 -12 0 -21 -5 -21 -11 0 -6 7 -9 15 -5 10 4 15 -1 15 -14 0 -11 5 -20 10
-20 6 0 4 -13 -5 -30 -8 -16 -15 -54 -15 -85 0 -30 -4 -55 -9 -55 -5 0 -17 -3
-26 -7 -15 -5 -16 -1 -10 28 4 19 13 44 21 56 18 29 18 90 0 109 -18 17 -48
18 -64 2 -9 -9 -12 -5 -12 19 0 22 -5 32 -20 36 -10 3 -22 0 -25 -7 -3 -6 -3
0 -1 13 4 18 -3 34 -27 57 -18 18 -40 44 -50 58 -10 14 -26 26 -36 26 -31 0
-51 43 -50 107 1 32 3 50 6 41 6 -23 39 -23 51 -1 11 18 -30 151 -73 237 -14
27 -25 56 -25 63 0 10 -54 13 -264 13 l-264 0 5 -39 c4 -29 1 -39 -11 -44 -9
-4 -16 -3 -16 2 0 4 -14 24 -31 44 l-32 37 -753 0 c-708 0 -753 -1 -757 -17
-4 -17 -5 -17 -6 0 -1 16 -97 17 -1866 17 l-1865 0 0 -1600z m5109 1505 c33
-116 53 -226 56 -295 1 -36 5 -80 10 -97 8 -33 -4 -43 -31 -25 -26 18 -46 124
-44 242 1 47 -6 116 -14 153 -30 129 -12 146 23 22z m-396 -276 c9 -21 17 -48
17 -58 0 -11 5 -23 10 -26 6 -3 10 -30 9 -58 0 -30 -3 -45 -7 -34 -7 16 -9 15
-26 -5 -18 -20 -19 -21 -32 -3 -12 16 -16 16 -30 4 -13 -11 -18 -11 -21 -2 -3
7 -14 27 -26 46 -45 68 -56 94 -54 130 2 42 4 43 28 21 20 -18 39 -11 39 13 0
9 6 13 15 10 8 -4 17 -2 20 2 11 19 42 -2 58 -40z m960 -41 c4 -10 7 -10 18 0
21 20 26 15 39 -40 7 -29 18 -60 25 -68 12 -16 21 -99 9 -87 -4 4 -13 2 -21
-4 -10 -9 -13 -8 -13 5 0 9 -5 16 -11 16 -6 0 -9 -11 -7 -23 3 -29 -24 -61
-40 -45 -16 16 -32 0 -32 -32 0 -35 -15 -47 -28 -23 -8 14 -13 15 -25 4 -13
-10 -19 -9 -35 4 -15 14 -18 26 -15 59 5 36 1 47 -21 69 -35 36 -33 53 4 27
25 -18 30 -19 30 -6 0 9 6 16 14 16 7 0 17 10 21 23 6 21 7 20 16 -10 7 -25
13 -30 29 -26 16 4 18 8 9 19 -16 19 -3 30 16 14 8 -7 22 -9 31 -6 15 6 14 10
-10 35 -19 20 -26 36 -24 59 2 33 13 42 21 20z m-263 -147 c0 -23 48 -64 67
-57 23 9 24 -12 0 -39 -29 -34 -82 -47 -120 -28 -22 11 -32 12 -43 3 -7 -7
-20 -10 -28 -7 -8 3 -20 -1 -27 -9 -14 -17 -14 -17 -33 27 -13 32 -13 36 3 46
14 9 25 8 46 -3 32 -16 52 -9 34 13 -10 12 -10 16 2 24 24 15 35 10 44 -23 12
-38 45 -52 45 -18 0 11 -9 31 -20 43 -20 20 -20 22 -4 34 25 18 34 16 34 -6z
m-896 -10 c3 -5 6 -31 7 -57 3 -76 13 -95 51 -93 18 1 48 9 65 17 25 13 35 14
45 4 16 -16 -15 -50 -56 -60 -43 -11 -47 -34 -4 -26 18 4 38 10 43 14 17 12
60 -5 63 -25 2 -11 10 -37 19 -58 12 -27 13 -41 6 -48 -8 -8 -17 0 -32 27 -11
22 -20 31 -21 22 0 -9 -5 -20 -11 -24 -7 -4 -9 2 -7 17 2 16 -2 24 -12 24 -8
0 -15 -4 -15 -10 -1 -5 -9 -27 -19 -47 -13 -28 -15 -41 -7 -57 6 -11 11 -30
11 -43 -1 -22 -1 -22 -15 -4 -8 11 -15 30 -15 43 0 25 -19 30 -37 12 -9 -9
-18 -4 -38 17 l-26 29 2 -35 c2 -71 -1 -110 -11 -110 -5 0 -7 6 -4 14 8 22
-31 89 -72 126 -30 26 -38 40 -38 66 0 21 -5 34 -13 34 -19 0 -16 40 5 47 9 4
22 13 28 21 8 11 19 13 39 8 19 -5 31 -3 36 6 7 10 9 10 9 1 0 -7 4 -13 9 -13
9 0 4 83 -6 110 -5 13 -7 41 -4 55 2 8 19 6 25 -4z m260 -70 c3 -21 13 -44 22
-52 14 -11 19 -10 36 11 18 22 21 23 31 9 7 -9 17 -14 24 -12 6 2 14 -5 18
-16 3 -11 12 -18 19 -15 9 4 16 -6 20 -30 4 -19 10 -36 15 -38 4 -2 11 -18 14
-36 4 -21 3 -31 -3 -27 -6 3 -10 12 -10 19 0 8 -7 19 -16 27 -8 7 -26 33 -39
58 l-24 46 -1 -42 c0 -32 5 -46 19 -55 14 -9 17 -15 9 -28 -8 -12 -6 -25 6
-48 9 -17 16 -38 16 -46 0 -11 8 -7 29 12 15 15 26 30 24 34 -2 4 3 5 11 2 12
-5 11 -11 -9 -32 -26 -27 -31 -47 -17 -56 5 -3 14 11 21 30 7 18 17 34 23 34
6 0 7 -7 3 -17 -17 -42 -17 -53 0 -53 9 0 23 7 32 15 12 12 13 19 3 30 -7 8
-9 15 -4 15 5 0 2 5 -6 10 -13 9 -13 10 0 10 9 0 26 -7 38 -16 12 -8 25 -13
30 -10 4 2 15 -2 25 -9 20 -15 14 -41 -14 -56 -11 -5 -19 -19 -19 -29 0 -11
-7 -20 -16 -20 -8 0 -21 -15 -29 -34 -8 -19 -20 -36 -27 -38 -9 -3 -8 -14 4
-44 14 -34 20 -39 45 -37 24 2 25 1 8 -6 -46 -21 -64 -24 -135 -27 -41 -2 -79
-3 -83 -3 -4 -1 -19 -27 -33 -58 -17 -38 -28 -53 -33 -44 -6 9 -11 10 -15 3
-3 -6 -2 -13 4 -17 5 -3 10 -18 10 -32 l0 -26 -22 28 c-14 17 -22 41 -21 62 1
27 -2 33 -14 29 -8 -3 -17 -6 -19 -6 -2 0 -2 -10 1 -23 5 -20 1 -26 -34 -39
-40 -16 -61 -10 -61 17 0 16 35 55 48 55 19 0 23 39 7 70 -15 29 -15 34 2 70
24 53 71 57 126 12 15 -14 17 -13 17 5 0 12 16 31 40 48 48 33 50 44 11 51
-27 6 -29 8 -18 26 9 16 9 22 0 25 -7 3 -13 9 -13 14 0 6 -11 20 -25 33 -14
13 -25 26 -25 30 0 4 -9 16 -20 28 -15 17 -18 30 -14 62 5 38 4 40 -10 22 -19
-23 -19 -22 -7 21 6 22 6 35 -1 39 -7 4 -5 10 5 16 9 5 14 14 12 21 -11 38
-14 67 -6 67 4 0 11 -17 15 -39z m906 -386 c-7 -11 -6 -53 2 -60 3 -3 19 -2
36 1 27 6 32 11 33 38 l2 31 4 -30 c6 -41 22 -59 39 -44 8 6 14 17 14 23 0 10
12 10 49 2 28 -5 49 -14 48 -20 -1 -7 16 -10 48 -8 55 4 115 -5 115 -16 0 -13
-80 -31 -81 -18 0 7 -3 6 -6 -1 -2 -7 -13 -13 -23 -13 -11 0 -24 -9 -30 -20
-11 -21 -50 -28 -50 -9 0 5 -9 9 -19 7 -10 -2 -28 5 -39 15 -24 22 -58 19 -54
-5 1 -9 -2 -19 -8 -23 -6 -4 -10 5 -10 20 0 27 -31 48 -38 27 -2 -7 -10 -12
-18 -12 -8 0 -14 -10 -14 -25 0 -30 20 -33 27 -5 6 22 23 27 24 8 0 -7 2 -27
5 -45 4 -33 -13 -55 -26 -33 -4 7 -12 10 -17 7 -4 -3 -31 5 -58 19 -28 13 -56
24 -62 24 -7 0 -13 7 -13 15 0 9 -7 18 -15 21 -24 9 -18 33 10 40 31 8 33 39
3 55 l-22 12 24 9 c14 5 26 5 30 -1 3 -6 18 -7 35 -3 22 6 32 17 39 42 10 33
10 34 17 10 3 -14 3 -29 -1 -35z m-402 -352 c-10 -2 -18 -11 -18 -20 0 -8 6
-13 13 -10 6 2 20 0 29 -5 10 -5 34 -9 53 -10 19 -1 35 -5 35 -10 0 -5 5 -6
11 -3 6 4 16 -1 23 -11 20 -27 44 -12 38 25 -2 19 0 31 7 31 11 0 15 -13 12
-38 -1 -9 6 -11 23 -6 17 4 27 1 35 -13 10 -17 10 -17 11 0 0 9 5 17 11 17 5
0 7 -5 4 -10 -3 -6 -7 -29 -7 -52 0 -23 -6 -48 -13 -55 -7 -7 -15 -18 -17 -25
-7 -20 -28 2 -29 30 -1 25 -2 24 -11 -8 l-11 -35 -7 26 c-4 15 -16 35 -26 46
-11 11 -24 28 -31 39 -12 19 -13 19 -28 -1 -9 -11 -28 -45 -43 -76 -25 -51
-30 -56 -61 -57 -19 -1 -39 -6 -44 -11 -7 -7 -26 7 -57 40 -42 45 -51 50 -99
54 -44 3 -54 1 -58 -13 -5 -22 -57 -45 -82 -37 -11 3 -22 1 -25 -4 -4 -5 -19
-9 -35 -9 -22 1 -27 5 -24 18 3 12 12 16 29 12 14 -2 24 0 24 8 0 7 -8 9 -19
5 -24 -7 -35 9 -22 32 6 10 11 14 11 10 0 -4 10 -2 23 5 12 6 30 13 39 15 9 1
29 14 44 28 17 15 35 23 49 21 30 -6 56 10 33 19 -10 4 -21 5 -25 2 -4 -3 -14
1 -21 9 -19 21 6 28 88 22 37 -3 74 -1 82 3 7 5 33 8 58 8 25 -1 37 -3 28 -6z
m-602 -283 c-20 -22 -36 -44 -36 -50 0 -5 -7 -6 -17 -3 -11 4 -14 3 -9 -5 12
-20 41 -14 66 13 13 14 28 25 34 25 6 0 4 -4 -4 -10 -35 -22 5 -21 67 2 40 15
76 22 87 18 14 -4 16 -9 8 -14 -7 -4 -16 -5 -21 -1 -5 3 -12 1 -16 -5 -4 -6
-10 -8 -15 -5 -5 3 -15 -4 -24 -16 -11 -16 -27 -23 -58 -25 -24 -2 -63 -10
-87 -19 -24 -8 -54 -15 -67 -15 -12 0 -26 -5 -29 -10 -4 -6 -22 -17 -41 -25
-28 -11 -39 -12 -54 -3 -15 10 -23 9 -39 -6 -13 -12 -27 -16 -38 -11 -15 5
-13 8 12 19 17 7 46 16 65 20 21 4 76 38 140 85 58 44 107 80 109 80 2 1 -13
-17 -33 -39z m-1039 -211 c-6 -21 22 -111 36 -117 4 -2 7 -14 7 -27 0 -13 5
-36 11 -52 8 -22 7 -30 -5 -39 -20 -14 -20 -24 0 -24 8 0 12 -4 9 -10 -3 -5 3
-10 14 -10 22 0 28 -14 10 -26 -6 -3 -8 -17 -4 -32 4 -16 1 -28 -7 -33 -10 -7
-10 -9 0 -9 6 0 12 -5 12 -11 0 -5 -6 -7 -12 -3 -10 6 -10 4 0 -7 18 -20 15
-26 -15 -25 -22 1 -29 6 -31 26 -2 20 -1 22 7 10 15 -21 14 -4 -1 23 -6 12
-13 51 -14 87 -3 73 -7 106 -24 203 -11 63 -9 97 6 97 3 0 4 -9 1 -21z"/>
</g>
</svg>
